<?xml version="1.0" encoding="UTF-8" standalone="no"?>
<!DOCTYPE svg PUBLIC "-//W3C//DTD SVG 1.1//EN"
 "http://www.w3.org/Graphics/SVG/1.1/DTD/svg11.dtd">
<!-- Generated by graphviz version 2.40.1 (20161225.0304)
 -->
<!-- Title: G Pages: 1 -->
<svg width="1232pt" height="610pt"
 viewBox="0.00 0.00 1232.00 610.32" xmlns="http://www.w3.org/2000/svg" xmlns:xlink="http://www.w3.org/1999/xlink">
<g id="graph0" class="graph" transform="scale(1 1) rotate(0) translate(4 606.3229)">
<title>G</title>
<polygon fill="#ffffff" stroke="transparent" points="-4,4 -4,-606.3229 1228,-606.3229 1228,4 -4,4"/>
<g id="clust1" class="cluster">
<title>cluster_G</title>
<path fill="#808080" fill-opacity="0.094118" stroke="#000000" d="M20,-8C20,-8 1204,-8 1204,-8 1210,-8 1216,-14 1216,-20 1216,-20 1216,-582.3229 1216,-582.3229 1216,-588.3229 1210,-594.3229 1204,-594.3229 1204,-594.3229 20,-594.3229 20,-594.3229 14,-594.3229 8,-588.3229 8,-582.3229 8,-582.3229 8,-20 8,-20 8,-14 14,-8 20,-8"/>
</g>
<!-- layers -->
<g id="node1" class="node">
<title>layers</title>
<ellipse fill="#ffffff" fill-opacity="0.698039" stroke="#000000" cx="719" cy="-568.3229" rx="31.6951" ry="18"/>
<text text-anchor="middle" x="719" y="-564.6229" font-family="Times,serif" font-size="14.00" fill="#000000">layers</text>
</g>
<!-- layers__Layers -->
<g id="node2" class="node">
<title>layers__Layers</title>
<ellipse fill="#fecccc" fill-opacity="0.698039" stroke="#000000" cx="719" cy="-465.5326" rx="69.0935" ry="48.5816"/>
<text text-anchor="middle" x="719" y="-484.8326" font-family="Times,serif" font-size="14.00" fill="#000000">Layers</text>
<text text-anchor="middle" x="719" y="-453.8326" font-family="Times,serif" font-size="14.00" fill="#000000">(layers.py:12,</text>
<text text-anchor="middle" x="719" y="-438.8326" font-family="Times,serif" font-size="14.00" fill="#000000">class in layers)</text>
</g>
<!-- layers&#45;&gt;layers__Layers -->
<g id="edge1" class="edge">
<title>layers&#45;&gt;layers__Layers</title>
<path fill="none" stroke="#838b8b" stroke-dasharray="5,2" d="M719,-549.9461C719,-542.652 719,-533.8192 719,-524.6509"/>
<polygon fill="#838b8b" stroke="#838b8b" points="722.5001,-524.6275 719,-514.6275 715.5001,-524.6276 722.5001,-524.6275"/>
</g>
<!-- layers__Layers____init__ -->
<g id="node3" class="node">
<title>layers__Layers____init__</title>
<ellipse fill="#ff9999" fill-opacity="0.698039" stroke="#000000" cx="124" cy="-331.9518" rx="108.375" ry="48.5816"/>
<text text-anchor="middle" x="124" y="-351.2518" font-family="Times,serif" font-size="14.00" fill="#000000">__init__</text>
<text text-anchor="middle" x="124" y="-320.2518" font-family="Times,serif" font-size="14.00" fill="#000000">(layers.py:18,</text>
<text text-anchor="middle" x="124" y="-305.2518" font-family="Times,serif" font-size="14.00" fill="#000000">method in layers.Layers)</text>
</g>
<!-- layers__Layers&#45;&gt;layers__Layers____init__ -->
<g id="edge6" class="edge">
<title>layers__Layers&#45;&gt;layers__Layers____init__</title>
<path fill="none" stroke="#838b8b" stroke-dasharray="5,2" d="M650.2364,-458.1463C556.3816,-446.983 383.5407,-422.5531 241,-380.7422 230.8138,-377.7543 220.3125,-374.1603 209.9765,-370.2946"/>
<polygon fill="#838b8b" stroke="#838b8b" points="211.1347,-366.9903 200.5445,-366.6777 208.6284,-373.5262 211.1347,-366.9903"/>
</g>
<!-- layers__Layers__add -->
<g id="node4" class="node">
<title>layers__Layers__add</title>
<ellipse fill="#ff9999" fill-opacity="0.698039" stroke="#000000" cx="358" cy="-331.9518" rx="108.375" ry="48.5816"/>
<text text-anchor="middle" x="358" y="-351.2518" font-family="Times,serif" font-size="14.00" fill="#000000">add</text>
<text text-anchor="middle" x="358" y="-320.2518" font-family="Times,serif" font-size="14.00" fill="#000000">(layers.py:79,</text>
<text text-anchor="middle" x="358" y="-305.2518" font-family="Times,serif" font-size="14.00" fill="#000000">method in layers.Layers)</text>
</g>
<!-- layers__Layers&#45;&gt;layers__Layers__add -->
<g id="edge2" class="edge">
<title>layers__Layers&#45;&gt;layers__Layers__add</title>
<path fill="none" stroke="#838b8b" stroke-dasharray="5,2" d="M656.1904,-444.8733C606.6859,-428.31 536.0625,-404.0592 475,-380.7422 465.5737,-377.1428 455.7712,-373.2677 446.0294,-369.3311"/>
<polygon fill="#838b8b" stroke="#838b8b" points="447.304,-366.0712 436.7222,-365.5451 444.6663,-372.5552 447.304,-366.0712"/>
</g>
<!-- layers__Layers__decode -->
<g id="node5" class="node">
<title>layers__Layers__decode</title>
<ellipse fill="#ff9999" fill-opacity="0.698039" stroke="#000000" cx="592" cy="-331.9518" rx="108.375" ry="48.5816"/>
<text text-anchor="middle" x="592" y="-351.2518" font-family="Times,serif" font-size="14.00" fill="#000000">decode</text>
<text text-anchor="middle" x="592" y="-320.2518" font-family="Times,serif" font-size="14.00" fill="#000000">(layers.py:53,</text>
<text text-anchor="middle" x="592" y="-305.2518" font-family="Times,serif" font-size="14.00" fill="#000000">method in layers.Layers)</text>
</g>
<!-- layers__Layers&#45;&gt;layers__Layers__decode -->
<g id="edge7" class="edge">
<title>layers__Layers&#45;&gt;layers__Layers__decode</title>
<path fill="none" stroke="#838b8b" stroke-dasharray="5,2" d="M680.2057,-424.7281C668.1423,-412.0396 654.6695,-397.8686 641.9563,-384.4967"/>
<polygon fill="#838b8b" stroke="#838b8b" points="644.4122,-382.0003 634.9853,-377.1645 639.3391,-386.8235 644.4122,-382.0003"/>
</g>
<!-- layers__Layers__find_anyons -->
<g id="node6" class="node">
<title>layers__Layers__find_anyons</title>
<ellipse fill="#ff9999" fill-opacity="0.698039" stroke="#000000" cx="675" cy="-64.7904" rx="108.375" ry="48.5816"/>
<text text-anchor="middle" x="675" y="-84.0904" font-family="Times,serif" font-size="14.00" fill="#000000">find_anyons</text>
<text text-anchor="middle" x="675" y="-53.0904" font-family="Times,serif" font-size="14.00" fill="#000000">(layers.py:102,</text>
<text text-anchor="middle" x="675" y="-38.0904" font-family="Times,serif" font-size="14.00" fill="#000000">method in layers.Layers)</text>
</g>
<!-- layers__Layers&#45;&gt;layers__Layers__find_anyons -->
<g id="edge4" class="edge">
<title>layers__Layers&#45;&gt;layers__Layers__find_anyons</title>
<path fill="none" stroke="#838b8b" stroke-dasharray="5,2" d="M729.6435,-417.2682C741.4943,-354.2742 755.7146,-241.2594 729,-149.5807 726.0095,-139.318 721.3588,-129.1124 716.0135,-119.524"/>
<polygon fill="#838b8b" stroke="#838b8b" points="719.0289,-117.747 710.9371,-110.908 712.9979,-121.3005 719.0289,-117.747"/>
</g>
<!-- layers__Layers__find_anyons_all -->
<g id="node7" class="node">
<title>layers__Layers__find_anyons_all</title>
<ellipse fill="#ff9999" fill-opacity="0.698039" stroke="#000000" cx="612" cy="-198.3711" rx="108.375" ry="48.5816"/>
<text text-anchor="middle" x="612" y="-217.6711" font-family="Times,serif" font-size="14.00" fill="#000000">find_anyons_all</text>
<text text-anchor="middle" x="612" y="-186.6711" font-family="Times,serif" font-size="14.00" fill="#000000">(layers.py:96,</text>
<text text-anchor="middle" x="612" y="-171.6711" font-family="Times,serif" font-size="14.00" fill="#000000">method in layers.Layers)</text>
</g>
<!-- layers__Layers&#45;&gt;layers__Layers__find_anyons_all -->
<g id="edge3" class="edge">
<title>layers__Layers&#45;&gt;layers__Layers__find_anyons_all</title>
<path fill="none" stroke="#838b8b" stroke-dasharray="5,2" d="M726.2499,-416.8967C729.6898,-378.6067 729.3572,-324.9174 709,-283.1615 702.2058,-269.2253 691.9793,-256.6197 680.6774,-245.6458"/>
<polygon fill="#838b8b" stroke="#838b8b" points="682.8431,-242.8818 673.1204,-238.6724 678.096,-248.0262 682.8431,-242.8818"/>
</g>
<!-- layers__Layers__get_time -->
<g id="node8" class="node">
<title>layers__Layers__get_time</title>
<ellipse fill="#ff9999" fill-opacity="0.698039" stroke="#000000" cx="866" cy="-331.9518" rx="108.375" ry="48.5816"/>
<text text-anchor="middle" x="866" y="-351.2518" font-family="Times,serif" font-size="14.00" fill="#000000">get_time</text>
<text text-anchor="middle" x="866" y="-320.2518" font-family="Times,serif" font-size="14.00" fill="#000000">(layers.py:41,</text>
<text text-anchor="middle" x="866" y="-305.2518" font-family="Times,serif" font-size="14.00" fill="#000000">method in layers.Layers)</text>
</g>
<!-- layers__Layers&#45;&gt;layers__Layers__get_time -->
<g id="edge8" class="edge">
<title>layers__Layers&#45;&gt;layers__Layers__get_time</title>
<path fill="none" stroke="#838b8b" stroke-dasharray="5,2" d="M761.5185,-426.8955C776.6755,-413.1222 793.984,-397.3937 810.0943,-382.754"/>
<polygon fill="#838b8b" stroke="#838b8b" points="812.8451,-384.9836 817.8921,-375.6681 808.1375,-379.803 812.8451,-384.9836"/>
</g>
<!-- layers__Layers__reset -->
<g id="node9" class="node">
<title>layers__Layers__reset</title>
<ellipse fill="#ff9999" fill-opacity="0.698039" stroke="#000000" cx="1100" cy="-331.9518" rx="108.375" ry="48.5816"/>
<text text-anchor="middle" x="1100" y="-351.2518" font-family="Times,serif" font-size="14.00" fill="#000000">reset</text>
<text text-anchor="middle" x="1100" y="-320.2518" font-family="Times,serif" font-size="14.00" fill="#000000">(layers.py:45,</text>
<text text-anchor="middle" x="1100" y="-305.2518" font-family="Times,serif" font-size="14.00" fill="#000000">method in layers.Layers)</text>
</g>
<!-- layers__Layers&#45;&gt;layers__Layers__reset -->
<g id="edge5" class="edge">
<title>layers__Layers&#45;&gt;layers__Layers__reset</title>
<path fill="none" stroke="#838b8b" stroke-dasharray="5,2" d="M782.9916,-446.6341C836.7769,-430.3561 915.4676,-405.6177 983,-380.7422 992.5465,-377.2258 1002.4602,-373.3884 1012.2973,-369.4607"/>
<polygon fill="#838b8b" stroke="#838b8b" points="1013.7242,-372.6592 1021.6908,-365.6747 1011.1074,-366.1667 1013.7242,-372.6592"/>
</g>
<!-- layers__Layers__decode&#45;&gt;layers__Layers__find_anyons_all -->
<g id="edge9" class="edge">
<title>layers__Layers__decode&#45;&gt;layers__Layers__find_anyons_all</title>
<path fill="none" stroke="#000000" d="M599.3337,-282.9698C600.5837,-274.6209 601.8937,-265.8715 603.1774,-257.2974"/>
<polygon fill="#000000" stroke="#000000" points="606.6478,-257.7553 604.6672,-247.3472 599.725,-256.7187 606.6478,-257.7553"/>
</g>
<!-- layers__Layers__find_anyons_all&#45;&gt;layers__Layers__find_anyons -->
<g id="edge10" class="edge">
<title>layers__Layers__find_anyons_all&#45;&gt;layers__Layers__find_anyons</title>
<path fill="none" stroke="#000000" d="M634.5665,-150.5227C638.9545,-141.2187 643.5946,-131.3801 648.1059,-121.8146"/>
<polygon fill="#000000" stroke="#000000" points="651.2792,-123.2913 652.3793,-112.7537 644.948,-120.3053 651.2792,-123.2913"/>
</g>
</g>
</svg>
