<?xml version="1.0" encoding="UTF-8" standalone="no"?>
<!DOCTYPE svg PUBLIC "-//W3C//DTD SVG 1.1//EN"
 "http://www.w3.org/Graphics/SVG/1.1/DTD/svg11.dtd">
<!-- Generated by graphviz version 2.40.1 (20161225.0304)
 -->
<!-- Title: G Pages: 1 -->
<svg width="1400pt" height="343pt"
 viewBox="0.00 0.00 1400.00 343.16" xmlns="http://www.w3.org/2000/svg" xmlns:xlink="http://www.w3.org/1999/xlink">
<g id="graph0" class="graph" transform="scale(1 1) rotate(0) translate(4 339.1615)">
<title>G</title>
<polygon fill="#ffffff" stroke="transparent" points="-4,4 -4,-339.1615 1396,-339.1615 1396,4 -4,4"/>
<g id="clust1" class="cluster">
<title>cluster_G</title>
<path fill="#808080" fill-opacity="0.094118" stroke="#000000" d="M20,-8C20,-8 1372,-8 1372,-8 1378,-8 1384,-14 1384,-20 1384,-20 1384,-315.1615 1384,-315.1615 1384,-321.1615 1378,-327.1615 1372,-327.1615 1372,-327.1615 20,-327.1615 20,-327.1615 14,-327.1615 8,-321.1615 8,-315.1615 8,-315.1615 8,-20 8,-20 8,-14 14,-8 20,-8"/>
</g>
<!-- matching -->
<g id="node1" class="node">
<title>matching</title>
<ellipse fill="#ffffff" fill-opacity="0.698039" stroke="#000000" cx="614" cy="-301.1615" rx="44.393" ry="18"/>
<text text-anchor="middle" x="614" y="-297.4615" font-family="Times,serif" font-size="14.00" fill="#000000">matching</text>
</g>
<!-- matching__add_virtual_space -->
<g id="node2" class="node">
<title>matching__add_virtual_space</title>
<ellipse fill="#fecccc" fill-opacity="0.698039" stroke="#000000" cx="320" cy="-64.7904" rx="95.4188" ry="48.5816"/>
<text text-anchor="middle" x="320" y="-84.0904" font-family="Times,serif" font-size="14.00" fill="#000000">add_virtual_space</text>
<text text-anchor="middle" x="320" y="-53.0904" font-family="Times,serif" font-size="14.00" fill="#000000">(matching.py:218,</text>
<text text-anchor="middle" x="320" y="-38.0904" font-family="Times,serif" font-size="14.00" fill="#000000">function in matching)</text>
</g>
<!-- matching&#45;&gt;matching__add_virtual_space -->
<g id="edge3" class="edge">
<title>matching&#45;&gt;matching__add_virtual_space</title>
<path fill="none" stroke="#838b8b" stroke-dasharray="5,2" d="M571.5049,-296.1029C512.8756,-288.321 411.3073,-271.6953 384,-247.1615 349.0242,-215.7381 333.1625,-164.0751 325.9692,-123.744"/>
<polygon fill="#838b8b" stroke="#838b8b" points="329.4022,-123.0505 324.3208,-113.7538 322.4955,-124.1902 329.4022,-123.0505"/>
</g>
<!-- matching__add_virtual_time -->
<g id="node3" class="node">
<title>matching__add_virtual_time</title>
<ellipse fill="#fecccc" fill-opacity="0.698039" stroke="#000000" cx="111" cy="-64.7904" rx="95.4188" ry="48.5816"/>
<text text-anchor="middle" x="111" y="-84.0904" font-family="Times,serif" font-size="14.00" fill="#000000">add_virtual_time</text>
<text text-anchor="middle" x="111" y="-53.0904" font-family="Times,serif" font-size="14.00" fill="#000000">(matching.py:232,</text>
<text text-anchor="middle" x="111" y="-38.0904" font-family="Times,serif" font-size="14.00" fill="#000000">function in matching)</text>
</g>
<!-- matching&#45;&gt;matching__add_virtual_time -->
<g id="edge5" class="edge">
<title>matching&#45;&gt;matching__add_virtual_time</title>
<path fill="none" stroke="#838b8b" stroke-dasharray="5,2" d="M571.6215,-295.8462C502.9075,-286.7824 370.5757,-267.349 328,-247.1615 261.5132,-215.6363 198.6652,-158.723 157.8866,-116.833"/>
<polygon fill="#838b8b" stroke="#838b8b" points="160.2421,-114.2333 150.7841,-109.4588 155.2004,-119.0894 160.2421,-114.2333"/>
</g>
<!-- matching__make_graphX -->
<g id="node4" class="node">
<title>matching__make_graphX</title>
<ellipse fill="#fecccc" fill-opacity="0.698039" stroke="#000000" cx="529" cy="-64.7904" rx="95.4188" ry="48.5816"/>
<text text-anchor="middle" x="529" y="-84.0904" font-family="Times,serif" font-size="14.00" fill="#000000">make_graph</text>
<text text-anchor="middle" x="529" y="-53.0904" font-family="Times,serif" font-size="14.00" fill="#000000">(matching.py:111,</text>
<text text-anchor="middle" x="529" y="-38.0904" font-family="Times,serif" font-size="14.00" fill="#000000">function in matching)</text>
</g>
<!-- matching&#45;&gt;matching__make_graphX -->
<g id="edge8" class="edge">
<title>matching&#45;&gt;matching__make_graphX</title>
<path fill="none" stroke="#838b8b" stroke-dasharray="5,2" d="M571.1752,-296.1824C516.3521,-288.8256 426.0306,-273.0564 406,-247.1615 379.4647,-212.8575 385.8336,-187.9761 406,-149.5807 415.846,-130.8345 431.9215,-115.4216 449.2519,-103.1224"/>
<polygon fill="#838b8b" stroke="#838b8b" points="451.5032,-105.8258 457.8385,-97.3338 447.5902,-100.0216 451.5032,-105.8258"/>
</g>
<!-- matching__match -->
<g id="node5" class="node">
<title>matching__match</title>
<ellipse fill="#fecccc" fill-opacity="0.698039" stroke="#000000" cx="510" cy="-198.3711" rx="95.4188" ry="48.5816"/>
<text text-anchor="middle" x="510" y="-217.6711" font-family="Times,serif" font-size="14.00" fill="#000000">match</text>
<text text-anchor="middle" x="510" y="-186.6711" font-family="Times,serif" font-size="14.00" fill="#000000">(matching.py:57,</text>
<text text-anchor="middle" x="510" y="-171.6711" font-family="Times,serif" font-size="14.00" fill="#000000">function in matching)</text>
</g>
<!-- matching&#45;&gt;matching__match -->
<g id="edge4" class="edge">
<title>matching&#45;&gt;matching__match</title>
<path fill="none" stroke="#838b8b" stroke-dasharray="5,2" d="M596.8265,-284.1877C587.0845,-274.559 574.3242,-261.9472 561.5962,-249.3672"/>
<polygon fill="#838b8b" stroke="#838b8b" points="563.7016,-246.5271 554.1289,-241.9868 558.7809,-251.5057 563.7016,-246.5271"/>
</g>
<!-- matching__match_simple -->
<g id="node6" class="node">
<title>matching__match_simple</title>
<ellipse fill="#fecccc" fill-opacity="0.698039" stroke="#000000" cx="719" cy="-198.3711" rx="95.4188" ry="48.5816"/>
<text text-anchor="middle" x="719" y="-217.6711" font-family="Times,serif" font-size="14.00" fill="#000000">match_simple</text>
<text text-anchor="middle" x="719" y="-186.6711" font-family="Times,serif" font-size="14.00" fill="#000000">(matching.py:9,</text>
<text text-anchor="middle" x="719" y="-171.6711" font-family="Times,serif" font-size="14.00" fill="#000000">function in matching)</text>
</g>
<!-- matching&#45;&gt;matching__match_simple -->
<g id="edge6" class="edge">
<title>matching&#45;&gt;matching__match_simple</title>
<path fill="none" stroke="#838b8b" stroke-dasharray="5,2" d="M631.3386,-284.1877C641.2662,-274.469 654.2984,-261.7112 667.268,-249.0145"/>
<polygon fill="#838b8b" stroke="#838b8b" points="669.7493,-251.4833 674.4468,-241.9868 664.8524,-246.4812 669.7493,-251.4833"/>
</g>
<!-- matching__pairs_remove_out_planar -->
<g id="node7" class="node">
<title>matching__pairs_remove_out_planar</title>
<ellipse fill="#fecccc" fill-opacity="0.698039" stroke="#000000" cx="752" cy="-64.7904" rx="109.7032" ry="48.5816"/>
<text text-anchor="middle" x="752" y="-84.0904" font-family="Times,serif" font-size="14.00" fill="#000000">pairs_remove_out_planar</text>
<text text-anchor="middle" x="752" y="-53.0904" font-family="Times,serif" font-size="14.00" fill="#000000">(matching.py:156,</text>
<text text-anchor="middle" x="752" y="-38.0904" font-family="Times,serif" font-size="14.00" fill="#000000">function in matching)</text>
</g>
<!-- matching&#45;&gt;matching__pairs_remove_out_planar -->
<g id="edge2" class="edge">
<title>matching&#45;&gt;matching__pairs_remove_out_planar</title>
<path fill="none" stroke="#838b8b" stroke-dasharray="5,2" d="M656.5581,-296.2759C711.594,-288.9811 802.8066,-273.2354 823,-247.1615 849.5553,-212.8729 837.8123,-190.342 823,-149.5807 818.8503,-138.1614 812.4138,-127.2066 805.0746,-117.1844"/>
<polygon fill="#838b8b" stroke="#838b8b" points="807.6201,-114.7553 798.7277,-108.9954 802.0873,-119.0435 807.6201,-114.7553"/>
</g>
<!-- matching__pairs_remove_out_planar_space -->
<g id="node8" class="node">
<title>matching__pairs_remove_out_planar_space</title>
<ellipse fill="#fecccc" fill-opacity="0.698039" stroke="#000000" cx="1240" cy="-64.7904" rx="135.5294" ry="48.5816"/>
<text text-anchor="middle" x="1240" y="-84.0904" font-family="Times,serif" font-size="14.00" fill="#000000">pairs_remove_out_planar_space</text>
<text text-anchor="middle" x="1240" y="-53.0904" font-family="Times,serif" font-size="14.00" fill="#000000">(matching.py:192,</text>
<text text-anchor="middle" x="1240" y="-38.0904" font-family="Times,serif" font-size="14.00" fill="#000000">function in matching)</text>
</g>
<!-- matching&#45;&gt;matching__pairs_remove_out_planar_space -->
<g id="edge1" class="edge">
<title>matching&#45;&gt;matching__pairs_remove_out_planar_space</title>
<path fill="none" stroke="#838b8b" stroke-dasharray="5,2" d="M656.9103,-296.4098C711.3507,-289.5345 807.5916,-274.5315 886,-247.1615 986.1519,-212.2014 1093.4192,-153.6343 1163.294,-112.3176"/>
<polygon fill="#838b8b" stroke="#838b8b" points="1165.242,-115.2314 1172.0509,-107.1141 1161.6661,-109.2136 1165.242,-115.2314"/>
</g>
<!-- matching__pairs_remove_out_toric -->
<g id="node9" class="node">
<title>matching__pairs_remove_out_toric</title>
<ellipse fill="#fecccc" fill-opacity="0.698039" stroke="#000000" cx="983" cy="-64.7904" rx="103.4757" ry="48.5816"/>
<text text-anchor="middle" x="983" y="-84.0904" font-family="Times,serif" font-size="14.00" fill="#000000">pairs_remove_out_toric</text>
<text text-anchor="middle" x="983" y="-53.0904" font-family="Times,serif" font-size="14.00" fill="#000000">(matching.py:208,</text>
<text text-anchor="middle" x="983" y="-38.0904" font-family="Times,serif" font-size="14.00" fill="#000000">function in matching)</text>
</g>
<!-- matching&#45;&gt;matching__pairs_remove_out_toric -->
<g id="edge7" class="edge">
<title>matching&#45;&gt;matching__pairs_remove_out_toric</title>
<path fill="none" stroke="#838b8b" stroke-dasharray="5,2" d="M655.242,-294.3317C710.5908,-284.6203 805.3822,-265.9105 835,-247.1615 884.6948,-215.703 925.3742,-161.7983 951.4212,-120.7284"/>
<polygon fill="#838b8b" stroke="#838b8b" points="954.4351,-122.5097 956.7552,-112.172 948.4948,-118.8065 954.4351,-122.5097"/>
</g>
<!-- matching__match&#45;&gt;matching__add_virtual_space -->
<g id="edge13" class="edge">
<title>matching__match&#45;&gt;matching__add_virtual_space</title>
<path fill="none" stroke="#000000" d="M453.7649,-158.8347C432.1271,-143.6221 407.2508,-126.1326 384.8648,-110.394"/>
<polygon fill="#000000" stroke="#000000" points="386.6127,-107.3444 376.4191,-104.4562 382.5867,-113.0708 386.6127,-107.3444"/>
</g>
<!-- matching__match&#45;&gt;matching__add_virtual_time -->
<g id="edge14" class="edge">
<title>matching__match&#45;&gt;matching__add_virtual_time</title>
<path fill="none" stroke="#000000" d="M423.6349,-177.218C364.4421,-161.8111 284.5391,-139.2137 216,-113.5807 207.1967,-110.2884 198.1064,-106.5711 189.1276,-102.6938"/>
<polygon fill="#000000" stroke="#000000" points="190.3909,-99.426 179.8278,-98.6066 187.5744,-105.8344 190.3909,-99.426"/>
</g>
<!-- matching__match&#45;&gt;matching__make_graphX -->
<g id="edge16" class="edge">
<title>matching__match&#45;&gt;matching__make_graphX</title>
<path fill="none" stroke="#000000" d="M516.967,-149.3891C518.1545,-141.0402 519.399,-132.2908 520.6186,-123.7167"/>
<polygon fill="#000000" stroke="#000000" points="524.0907,-124.1597 522.0338,-113.7665 517.1604,-123.1739 524.0907,-124.1597"/>
</g>
<!-- matching__match&#45;&gt;matching__pairs_remove_out_planar -->
<g id="edge12" class="edge">
<title>matching__match&#45;&gt;matching__pairs_remove_out_planar</title>
<path fill="none" stroke="#000000" d="M575.1699,-162.3982C605.6251,-145.5873 642.124,-125.4404 674.0325,-107.8274"/>
<polygon fill="#000000" stroke="#000000" points="675.8384,-110.8284 682.9018,-102.9317 672.4555,-104.7001 675.8384,-110.8284"/>
</g>
<!-- matching__match&#45;&gt;matching__pairs_remove_out_toric -->
<g id="edge15" class="edge">
<title>matching__match&#45;&gt;matching__pairs_remove_out_toric</title>
<path fill="none" stroke="#000000" d="M577.2053,-163.6035C589.5337,-158.2517 602.47,-153.2837 615,-149.5807 725.1864,-117.0177 760.4285,-144.811 871,-113.5807 880.8993,-110.7847 891.0676,-107.297 901.0477,-103.4799"/>
<polygon fill="#000000" stroke="#000000" points="902.5275,-106.6586 910.5437,-99.7311 899.9571,-100.1476 902.5275,-106.6586"/>
</g>
<!-- matching__match_simple&#45;&gt;matching__add_virtual_space -->
<g id="edge10" class="edge">
<title>matching__match_simple&#45;&gt;matching__add_virtual_space</title>
<path fill="none" stroke="#000000" d="M651.07,-163.8599C638.9302,-158.5463 626.2452,-153.5249 614,-149.5807 532.6077,-123.3645 506.3923,-139.797 425,-113.5807 415.9118,-110.6535 406.5813,-107.1327 397.4112,-103.3396"/>
<polygon fill="#000000" stroke="#000000" points="398.5018,-99.9999 387.93,-99.3015 395.7589,-106.4401 398.5018,-99.9999"/>
</g>
<!-- matching__match_simple&#45;&gt;matching__make_graphX -->
<g id="edge11" class="edge">
<title>matching__match_simple&#45;&gt;matching__make_graphX</title>
<path fill="none" stroke="#000000" d="M662.7649,-158.8347C641.1271,-143.6221 616.2508,-126.1326 593.8648,-110.394"/>
<polygon fill="#000000" stroke="#000000" points="595.6127,-107.3444 585.4191,-104.4562 591.5867,-113.0708 595.6127,-107.3444"/>
</g>
<!-- matching__match_simple&#45;&gt;matching__pairs_remove_out_planar_space -->
<g id="edge9" class="edge">
<title>matching__match_simple&#45;&gt;matching__pairs_remove_out_planar_space</title>
<path fill="none" stroke="#000000" d="M808.5311,-180.8834C885.1198,-165.2813 998.0248,-140.7528 1095,-113.5807 1107.4321,-110.0973 1120.3709,-106.1776 1133.1757,-102.113"/>
<polygon fill="#000000" stroke="#000000" points="1134.4794,-105.3705 1142.9309,-98.9813 1132.3397,-98.7055 1134.4794,-105.3705"/>
</g>
</g>
</svg>
